<?xml version="1.0"?>
<svg version="1.1" xmlns="http://www.w3.org/2000/svg" width="180" height="50" style=""><path fill="#0e5c29" d="M16.34033203125,19.638671875q0-1.03271484375,0.054931640625-2.04345703125t0.186767578125-1.99951171875q0.087890625-0.50537109375,0.780029296875-0.72509765625t1.153564453125-0.2197265625l0.52734375,0.0439453125q0.63720703125,0.087890625,1.285400390625-0.087890625t1.285400390625-0.17578125q1.494140625,0,3.33984375,0.32958984375t3.460693359375,1.12060546875t2.713623046875,2.076416015625t1.0986328125,3.175048828125t-1.142578125,3.526611328125t-2.87841796875,2.87841796875t-3.7353515625,1.944580078125t-3.66943359375,0.703125q0.17578125,4.24072265625,0.494384765625,8.41552734375t1.087646484375,8.349609375l0.0439453125,0.28564453125q0,0.3076171875-0.274658203125,0.50537109375t-0.648193359375,0.318603515625t-0.758056640625,0.164794921875t-0.626220703125,0.0439453125q-0.54931640625,0-1.329345703125-0.208740234375t-0.955810546875-0.823974609375q-0.50537109375-1.93359375-0.791015625-4.251708984375t-0.41748046875-4.844970703125t-0.186767578125-5.086669921875t-0.054931640625-4.998779296875l0-4.94384765625q0-0.81298828125-0.02197265625-1.69189453125t-0.02197265625-1.77978515625z M20.4931640625,16.0791015625q0,3.01025390625,0.06591796875,6.009521484375t0.15380859375,6.009521484375q1.29638671875-0.263671875,2.647705078125-0.933837890625t2.43896484375-1.593017578125t1.7578125-2.098388671875t0.670166015625-2.471923828125q0-1.16455078125-0.582275390625-2.08740234375t-1.505126953125-1.58203125q-0.90087890625-0.63720703125-2.04345703125-0.98876953125q-1.0107421875-0.3076171875-1.9775390625-0.3076171875l-0.24169921875,0z M36.723706054688,47.1044921875q0-0.63720703125,0.054931640625-1.34033203125t0.098876953125-1.318359375l0.1318359375-3.2958984375q0.2197265625-3.955078125,0.538330078125-7.7783203125t0.538330078125-7.734375q0.1318359375-2.1533203125,0.19775390625-4.229736328125t0.19775390625-4.229736328125q-0.087890625-0.17578125-0.087890625-0.24169921875q0-0.3076171875,0.230712890625-0.4833984375t0.538330078125-0.296630859375t0.648193359375-0.164794921875t0.516357421875-0.0439453125l0.50537109375,0q0.68115234375,0.087890625,0.98876953125,0.428466796875t0.3955078125,0.81298828125t0.0439453125,1.0107421875t-0.0439453125,0.999755859375q0,3.18603515625-0.15380859375,6.492919921875t-0.3515625,6.6357421875t-0.362548828125,6.65771484375t-0.164794921875,6.580810546875l0,1.5380859375q0,1.03271484375-0.582275390625,1.3623046875t-1.614990234375,0.32958984375q-0.90087890625,0-1.58203125-0.3955078125t-0.68115234375-1.29638671875z M46.801904296875,39.30419921875q0-1.494140625,0.406494140625-2.87841796875t1.219482421875-2.471923828125t2.032470703125-1.73583984375t2.823486328125-0.648193359375q0.98876953125,0,2.186279296875,0.296630859375t2.252197265625,0.87890625t1.7578125,1.483154296875t0.703125,2.0654296875q0,0.54931640625-0.186767578125,0.8349609375t-0.758056640625,0.28564453125l-0.24169921875-0.0439453125q0.63720703125,1.7138671875,1.0986328125,3.515625t0.90087890625,3.603515625q0.17578125,0.3515625,0.263671875,0.626220703125t0.087890625,0.538330078125q0,0.3515625-0.19775390625,0.582275390625t-0.516357421875,0.340576171875t-0.6591796875,0.15380859375t-0.604248046875,0.0439453125q-0.94482421875,0-1.417236328125-0.32958984375t-0.68115234375-0.90087890625t-0.252685546875-1.285400390625t-0.17578125-1.439208984375q-0.263671875,0.85693359375-0.692138671875,1.669921875t-1.0107421875,1.461181640625t-1.373291015625,1.03271484375t-1.77978515625,0.384521484375q-1.4501953125,0-2.43896484375-0.8349609375t-1.593017578125-2.054443359375t-0.87890625-2.603759765625t-0.274658203125-2.57080078125z M49.922021484375,38.99658203125q0,0.81298828125,0.10986328125,1.7138671875t0.362548828125,1.77978515625t0.648193359375,1.658935546875t0.98876953125,1.373291015625q1.07666015625-1.16455078125,1.593017578125-2.83447265625t0.9228515625-3.218994140625t0.9228515625-2.65869140625t1.593017578125-1.109619140625q0.68115234375,0,1.142578125,0.24169921875q-0.2197265625-0.54931640625-0.72509765625-1.065673828125t-1.131591796875-0.94482421875t-1.29638671875-0.703125t-1.263427734375-0.274658203125q-0.17578125,0-0.406494140625,0.054931640625t-0.362548828125,0.010986328125q-0.90087890625,0.263671875-1.483154296875,0.911865234375t-0.94482421875,1.527099609375t-0.516357421875,1.8017578125t-0.15380859375,1.73583984375z M65.866918945313,39.4140625l0-0.63720703125q0-0.791015625,0.0439453125-1.494140625q0.0439453125-0.98876953125,0.0439453125-1.6259765625q0-0.3515625,0.0439453125-0.802001953125t0.2197265625-0.714111328125q0.2197265625-0.2197265625,0.516357421875-0.450439453125t0.648193359375-0.230712890625q1.12060546875,0,1.7578125,0.252685546875t0.68115234375,1.043701171875l0.087890625,0.68115234375q0.3955078125-0.94482421875,1.0546875-2.340087890625t1.527099609375-2.65869140625t1.95556640625-2.1533203125t2.296142578125-0.889892578125q1.12060546875,0,1.845703125,1.0546875t1.153564453125,2.691650390625t0.604248046875,3.6474609375t0.24169921875,3.944091796875t0.087890625,3.526611328125t0.15380859375,2.406005859375q0.087890625,0.68115234375,0.296630859375,1.439208984375t0.208740234375,1.395263671875q0,0.17578125-0.252685546875,0.340576171875t-0.538330078125,0.274658203125t-0.582275390625,0.17578125t-0.428466796875,0.06591796875q-0.85693359375,0-1.219482421875-1.285400390625t-0.450439453125-3.218994140625t-0.087890625-4.185791015625t-0.15380859375-4.185791015625t-0.626220703125-3.218994140625t-1.505126953125-1.329345703125q-0.94482421875,0-1.95556640625,1.219482421875t-1.73583984375,3.240966796875q-0.703125,2.021484375-0.966796875,4.59228515625q-0.087890625,0.81298828125-0.087890625,1.6259765625q0,1.77978515625,0.37353515625,3.5595703125q0.0439453125,0.3076171875-0.252685546875,0.46142578125t-0.736083984375,0.24169921875t-0.889892578125,0.10986328125t-0.692138671875,0.02197265625q-0.85693359375,0-1.373291015625-0.604248046875t-0.802001953125-1.549072265625t-0.384521484375-2.120361328125t-0.120849609375-2.318115234375z M84.93193359375,25.3515625q0-0.3076171875,0.6591796875-0.52734375t1.494140625-0.362548828125t1.614990234375-0.208740234375t1.065673828125-0.10986328125q0-0.59326171875,0.0439453125-1.197509765625t0.24169921875-1.07666015625t0.626220703125-0.758056640625t1.197509765625-0.28564453125q0.63720703125,0,0.966796875,0.15380859375t0.703125,0.63720703125q0.087890625,0.263671875,0.087890625,0.50537109375l0,0.736083984375t-0.0439453125,0.758056640625q0.81298828125-0.087890625,1.614990234375-0.208740234375t1.614990234375-0.120849609375q0.59326171875,0,0.81298828125,0.02197265625t0.439453125,0.52734375q0.17578125,0.50537109375-0.428466796875,0.76904296875t-1.4501953125,0.3955078125t-1.680908203125,0.19775390625t-1.0107421875,0.06591796875q-0.263671875,3.779296875-0.538330078125,7.49267578125t-0.274658203125,7.53662109375q0,1.7138671875,0.10986328125,3.53759765625t0.615234375,3.44970703125q0.1318359375,0.50537109375,0.439453125,0.94482421875t0.3076171875,0.94482421875q0,0.3076171875-0.24169921875,0.4833984375t-0.582275390625,0.296630859375t-0.68115234375,0.142822265625t-0.560302734375,0.02197265625q-1.38427734375,0-2.109375-1.03271484375t-1.043701171875-2.471923828125t-0.340576171875-2.955322265625t-0.02197265625-2.4609375q0-1.93359375,0.076904296875-3.955078125t0.186767578125-3.9990234375t0.3076171875-3.8671875t0.46142578125-3.515625q-0.76904296875,0.087890625-1.505126953125,0.19775390625t-1.505126953125,0.10986328125q-0.17578125,0-0.472412109375-0.02197265625t-0.560302734375-0.10986328125t-0.450439453125-0.24169921875t-0.186767578125-0.439453125z M101.73376464844,33.63525390625q0-0.90087890625,0.52734375-1.549072265625t1.285400390625-1.0546875t1.658935546875-0.604248046875t1.669921875-0.19775390625q0.59326171875,0,1.58203125,0.17578125t1.93359375,0.52734375t1.636962890625,0.9228515625t0.692138671875,1.34033203125q0,0.3515625-0.263671875,0.626220703125t-0.54931640625,0.274658203125q-0.59326171875,0-1.07666015625-0.384521484375t-0.999755859375-0.81298828125t-1.131591796875-0.81298828125t-1.38427734375-0.384521484375t-1.395263671875,0.494384765625t-0.626220703125,1.307373046875q0,1.34033203125,0.94482421875,2.625732421875t2.076416015625,2.70263671875t2.076416015625,2.977294921875t0.94482421875,3.44970703125q0,0.81298828125-0.340576171875,1.373291015625t-0.90087890625,0.911865234375t-1.263427734375,0.538330078125t-1.3623046875,0.186767578125q-0.72509765625,0-1.69189453125-0.340576171875t-1.82373046875-0.90087890625t-1.439208984375-1.307373046875t-0.582275390625-1.56005859375q0-0.3955078125,0.560302734375-0.50537109375t0.823974609375-0.10986328125q0.1318359375,0,0.406494140625,0.087890625t0.538330078125,0.19775390625t0.472412109375,0.24169921875t0.164794921875,0.28564453125q0.2197265625,0.263671875,0.670166015625,0.780029296875t0.90087890625,0.8349609375t0.791015625,0.230712890625t0.340576171875-0.98876953125q0-1.7138671875-0.9228515625-3.153076171875t-2.010498046875-2.8125t-2.010498046875-2.724609375t-0.9228515625-2.889404296875z M117.26118164062,36.2060546875l0-3.4716796875q0-3.603515625,0.120849609375-7.152099609375t0.208740234375-7.152099609375q0-0.68115234375-0.0439453125-1.51611328125q-0.02197265625-0.24169921875-0.02197265625-0.46142578125q0-0.54931640625,0.087890625-1.07666015625q0.10986328125-0.703125,0.538330078125-1.20849609375t1.417236328125-0.50537109375q0.81298828125,0,1.241455078125,0.17578125t0.604248046875,0.516357421875t0.19775390625,0.85693359375t0.02197265625,1.197509765625q0,3.6474609375-0.087890625,7.31689453125q-0.06591796875,2.43896484375-0.06591796875,4.8779296875q0,1.23046875,0.02197265625,2.4609375q0.0439453125,3.6474609375,0.340576171875,7.294921875t0.999755859375,7.20703125q2.197265625-0.087890625,4.39453125-0.2197265625t4.39453125-0.1318359375q0.2197265625,0,0.626220703125,0.0439453125t0.81298828125,0.15380859375t0.692138671875,0.28564453125t0.28564453125,0.50537109375q0,0.2197265625-0.19775390625,0.37353515625t-0.37353515625,0.24169921875l-0.0439453125,0q-0.3515625,0.17578125-1.395263671875,0.340576171875t-2.373046875,0.252685546875t-2.79052734375,0.15380859375t-2.74658203125,0.10986328125t-2.230224609375,0.06591796875t-1.16455078125,0.02197265625l-0.19775390625,0q-0.52734375,0-1.1865234375-0.17578125q-0.791015625-0.2197265625-0.98876953125-0.85693359375q-0.3955078125-1.6259765625-0.626220703125-3.372802734375t-0.3515625-3.548583984375t-0.120849609375-3.603515625z M137.20510253906,38.77685546875q0-2.021484375,0.472412109375-3.966064453125t0.802001953125-3.878173828125q0.087890625-0.50537109375,0.692138671875-0.626220703125t1.021728515625-0.120849609375q0.72509765625,0,1.16455078125,0.2197265625q0.17578125,0.087890625,0.32958984375,0.19775390625t0.15380859375,0.28564453125q0,1.8896484375-0.450439453125,3.69140625t-0.450439453125,3.8232421875q0,0.68115234375,0.098876953125,1.285400390625t0.186767578125,1.197509765625l0.1318359375,0.63720703125q0,0.17578125,0.02197265625,0.3076171875t0.06591796875,0.3076171875q0,0.3955078125-0.560302734375,0.538330078125t-0.977783203125,0.142822265625q-0.63720703125,0-1.175537109375-0.252685546875t-0.845947265625-0.867919921875l-0.3076171875-0.63720703125q-0.263671875-0.50537109375-0.263671875-1.131591796875t-0.10986328125-1.153564453125z M138.61135253906,25.54931640625l0-0.41748046875q0-1.03271484375,0.516357421875-1.845703125t1.549072265625-0.81298828125q0.1318359375,0,0.252685546875,0.02197265625t0.252685546875,0.02197265625q0.263671875,0.0439453125,0.692138671875,0.208740234375t0.428466796875,0.516357421875l0,0.0439453125q-0.087890625,0.17578125-0.10986328125,0.362548828125t-0.10986328125,0.318603515625l0.0439453125-0.0439453125q-0.263671875,0.68115234375-0.428466796875,1.0986328125t-0.362548828125,0.670166015625t-0.494384765625,0.362548828125t-0.845947265625,0.10986328125q-0.087890625,0-0.3076171875-0.02197265625t-0.472412109375-0.087890625t-0.428466796875-0.17578125t-0.17578125-0.32958984375z M146.79990234375,30.11962890625q0-0.2197265625,0.340576171875-0.37353515625t0.81298828125-0.2197265625t0.90087890625-0.10986328125t0.648193359375-0.0439453125q0.087890625-0.59326171875,0.252685546875-1.60400390625t0.406494140625-2.164306640625t0.604248046875-2.318115234375t0.87890625-2.109375t1.219482421875-1.549072265625t1.64794921875-0.604248046875l-0.0439453125,0q0.3076171875-0.0439453125,0.604248046875-0.06591796875t0.604248046875-0.02197265625q0.72509765625,0,1.571044921875,0.28564453125t1.571044921875,0.802001953125t1.219482421875,1.241455078125t0.494384765625,1.5380859375q0,0.63720703125-0.318603515625,1.373291015625t-1.109619140625,0.736083984375q-0.263671875,0-0.538330078125-0.1318359375t-0.516357421875-0.28564453125q0.087890625-0.50537109375,0.087890625-1.0107421875q0-0.263671875-0.02197265625-0.50537109375q-0.06591796875-0.76904296875-0.32958984375-1.351318359375t-0.758056640625-0.9228515625t-1.175537109375-0.252685546875q-0.90087890625,0.1318359375-1.351318359375,1.0986328125t-0.626220703125,2.296142578125t-0.2197265625,2.70263671875t-0.17578125,2.230224609375q1.03271484375,0.087890625,1.746826171875,0.087890625l1.790771484375,0q0.17578125,0,0.604248046875,0.02197265625t0.8349609375,0.087890625t0.72509765625,0.230712890625t0.318603515625,0.428466796875q0,0.2197265625-0.17578125,0.384521484375t-0.428466796875,0.230712890625t-0.52734375,0.087890625t-0.450439453125,0.02197265625q-0.76904296875,0-1.307373046875-0.06591796875t-1.03271484375-0.120849609375t-1.03271484375-0.054931640625t-1.263427734375,0.15380859375q-0.2197265625,2.43896484375-0.3515625,4.833984375t-0.1318359375,4.833984375q0,3.8232421875,0.24169921875,7.49267578125t0.87890625,7.44873046875q0.087890625,0.3515625,0.15380859375,0.802001953125t0.06591796875,0.867919921875q0,0.3955078125-0.24169921875,0.648193359375t-0.604248046875,0.362548828125t-0.7470703125,0.15380859375t-0.692138671875,0.0439453125q-1.25244140625,0-1.7578125-0.384521484375t-0.72509765625-1.549072265625q-0.54931640625-3.09814453125-0.703125-6.251220703125t-0.15380859375-6.361083984375q0-3.14208984375,0.230712890625-6.273193359375t0.582275390625-6.229248046875q-0.17578125,0-0.604248046875,0.02197265625t-0.85693359375,0t-0.7470703125-0.15380859375t-0.318603515625-0.46142578125z M163.00847167969,40.205078125q0-1.5380859375,0.340576171875-3.62548828125t1.153564453125-3.955078125t2.142333984375-3.175048828125t3.350830078125-1.307373046875q1.8896484375,0,2.83447265625,1.087646484375t0.94482421875,2.933349609375q0,1.20849609375-0.450439453125,2.647705078125t-1.285400390625,2.724609375t-1.9775390625,2.142333984375t-2.548828125,0.85693359375l-0.5712890625-0.0439453125q0,0.59326171875,0.17578125,1.593017578125t0.516357421875,1.988525390625t0.87890625,1.73583984375t1.307373046875,0.7470703125q1.12060546875,0,2.1533203125-0.90087890625t1.95556640625-1.99951171875t1.7138671875-1.99951171875t1.4501953125-0.90087890625q0.3515625,0,0.72509765625,0.10986328125t0.41748046875,0.615234375q0,0.3076171875-0.164794921875,0.50537109375t-0.296630859375,0.439453125q-0.68115234375,1.16455078125-1.483154296875,2.21923828125t-1.812744140625,1.91162109375t-2.208251953125,1.351318359375t-2.647705078125,0.494384765625q-1.8896484375,0-3.14208984375-0.670166015625t-2.021484375-1.8017578125t-1.109619140625-2.61474609375t-0.340576171875-3.109130859375z M166.94157714844,38.53515625l0.615234375,0.54931640625q0.439453125,0.3955078125,0.87890625,0.17578125t0.791015625-0.802001953125t0.648193359375-1.439208984375t0.52734375-1.7578125t0.340576171875-1.7578125t0.10986328125-1.42822265625l0-0.7470703125t-0.06591796875-0.791015625t-0.230712890625-0.626220703125t-0.516357421875-0.318603515625q-0.10986328125-0.02197265625-0.19775390625-0.02197265625q-0.7470703125,0-1.2744140625,0.94482421875q-0.5712890625,1.0546875-0.9228515625,2.559814453125t-0.50537109375,3.087158203125t-0.19775390625,2.373046875z"/><path fill="#" d=""/></svg>
